{
  "accessors": [
    {
      "bufferView": 1,
      "componentType": 5126,
      "count": 65532,
      "max": [
        5.587605953216553,
        9.080617904663086,
        5.686608791351318
      ],
      "min": [
        -10.684419631958008,
        -2.712646961212158,
        -16.62788963317871
      ],
      "type": "VEC3"
    },
    {
      "bufferView": 1,
      "byteOffset": 786384,
      "componentType": 5126,
      "count": 65532,
      "max": [
        0.9999738335609436,
        0.9999935030937195,
        0.999997079372406
      ],
      "min": [
        -0.9999822378158569,
        -0.9999878406524658,
        -0.9999615550041199
      ],
      "type": "VEC3"
    },
    {
      "bufferView": 2,
      "componentType": 5126,
      "count": 65532,
      "max": [
        1.0,
        1.0,
        1.0,
        1.0
      ],
      "min": [
        0.0,
        0.0,
        0.0,
        1.0
      ],
      "type": "VEC4"
    },
    {
      "bufferView": 0,
      "componentType": 5125,
      "count": 301569,
      "type": "SCALAR"
    },
    {
      "bufferView": 1,
      "byteOffset": 1572768,
      "componentType": 5126,
      "count": 65532,
      "max": [
        10.082846641540527,
        8.590544700622559,
        5.666714668273926
      ],
      "min": [
        -8.830484390258789,
        -2.2711338996887207,
        -15.13624382019043
      ],
      "type": "VEC3"
    },
    {
      "bufferView": 1,
      "byteOffset": 2359152,
      "componentType": 5126,
      "count": 65532,
      "max": [
        0.9999601244926453,
        0.9999876022338867,
        0.9999613761901855
      ],
      "min": [
        -0.9999979138374329,
        -0.9999960660934448,
        -0.9999626278877258
      ],
      "type": "VEC3"
    },
    {
      "bufferView": 2,
      "byteOffset": 1048512,
      "componentType": 5126,
      "count": 65532,
      "max": [
        0.9960784316062927,
        0.9960784316062927,
        0.9960784316062927,
        1.0
      ],
      "min": [
        0.12941177189350128,
        0.12941177189350128,
        0.12941177189350128,
        1.0
      ],
      "type": "VEC4"
    },
    {
      "bufferView": 0,
      "byteOffset": 1206276,
      "componentType": 5125,
      "count": 303372,
      "type": "SCALAR"
    },
    {
      "bufferView": 1,
      "byteOffset": 3145536,
      "componentType": 5126,
      "count": 65532,
      "max": [
        9.863214492797852,
        9.388191223144531,
        5.863753318786621
      ],
      "min": [
        -10.789966583251953,
        -2.7488715648651123,
        -17.216650009155273
      ],
      "type": "VEC3"
    },
    {
      "bufferView": 1,
      "byteOffset": 3931920,
      "componentType": 5126,
      "count": 65532,
      "max": [
        0.9999865293502808,
        0.9999980926513672,
        0.99997878074646
      ],
      "min": [
        -0.9999996423721313,
        -0.999981164932251,
        -1.0
      ],
      "type": "VEC3"
    },
    {
      "bufferView": 2,
      "byteOffset": 2097024,
      "componentType": 5126,
      "count": 65532,
      "max": [
        1.0,
        1.0,
        1.0,
        1.0
      ],
      "min": [
        0.0,
        0.0,
        0.0,
        1.0
      ],
      "type": "VEC4"
    },
    {
      "bufferView": 0,
      "byteOffset": 2419764,
      "componentType": 5125,
      "count": 309960,
      "type": "SCALAR"
    },
    {
      "bufferView": 1,
      "byteOffset": 4718304,
      "componentType": 5126,
      "count": 65532,
      "max": [
        11.59063720703125,
        9.381789207458496,
        5.962327480316162
      ],
      "min": [
        -11.50394344329834,
        -2.6531851291656494,
        -17.138919830322266
      ],
      "type": "VEC3"
    },
    {
      "bufferView": 1,
      "byteOffset": 5504688,
      "componentType": 5126,
      "count": 65532,
      "max": [
        0.9999934434890747,
        0.9999814033508301,
        0.999995231628418
      ],
      "min": [
        -0.9999483823776245,
        -0.999977171421051,
        -0.9999998807907104
      ],
      "type": "VEC3"
    },
    {
      "bufferView": 2,
      "byteOffset": 3145536,
      "componentType": 5126,
      "count": 65532,
      "max": [
        0.9960784316062927,
        0.9960784316062927,
        0.9960784316062927,
        1.0
      ],
      "min": [
        0.0,
        0.0,
        0.0,
        1.0
      ],
      "type": "VEC4"
    },
    {
      "bufferView": 0,
      "byteOffset": 3659604,
      "componentType": 5125,
      "count": 305064,
      "type": "SCALAR"
    },
    {
      "bufferView": 1,
      "byteOffset": 6291072,
      "componentType": 5126,
      "count": 65532,
      "max": [
        11.275070190429688,
        9.387691497802734,
        6.0284576416015625
      ],
      "min": [
        -9.60805606842041,
        -1.3937053680419922,
        -15.560402870178223
      ],
      "type": "VEC3"
    },
    {
      "bufferView": 1,
      "byteOffset": 7077456,
      "componentType": 5126,
      "count": 65532,
      "max": [
        0.9999975562095642,
        0.9999893307685852,
        0.99997878074646
      ],
      "min": [
        -0.9999993443489075,
        -0.9999713897705078,
        -0.9999615550041199
      ],
      "type": "VEC3"
    },
    {
      "bufferView": 2,
      "byteOffset": 4194048,
      "componentType": 5126,
      "count": 65532,
      "max": [
        1.0,
        1.0,
        1.0,
        1.0
      ],
      "min": [
        0.0,
        0.0,
        0.0,
        1.0
      ],
      "type": "VEC4"
    },
    {
      "bufferView": 0,
      "byteOffset": 4879860,
      "componentType": 5125,
      "count": 306048,
      "type": "SCALAR"
    },
    {
      "bufferView": 1,
      "byteOffset": 7863840,
      "componentType": 5126,
      "count": 65532,
      "max": [
        11.454998016357422,
        9.387691497802734,
        6.047755718231201
      ],
      "min": [
        -10.453669548034668,
        -2.0053160190582275,
        -17.143970489501953
      ],
      "type": "VEC3"
    },
    {
      "bufferView": 1,
      "byteOffset": 8650224,
      "componentType": 5126,
      "count": 65532,
      "max": [
        0.9999120235443115,
        0.9999938011169434,
        0.9999690651893616
      ],
      "min": [
        -0.9999727606773376,
        -0.9999221563339233,
        -0.9999998211860657
      ],
      "type": "VEC3"
    },
    {
      "bufferView": 2,
      "byteOffset": 5242560,
      "componentType": 5126,
      "count": 65532,
      "max": [
        1.0,
        1.0,
        1.0,
        1.0
      ],
      "min": [
        0.0,
        0.0,
        0.0,
        1.0
      ],
      "type": "VEC4"
    },
    {
      "bufferView": 0,
      "byteOffset": 6104052,
      "componentType": 5125,
      "count": 309156,
      "type": "SCALAR"
    },
    {
      "bufferView": 1,
      "byteOffset": 9436608,
      "componentType": 5126,
      "count": 65532,
      "max": [
        10.569223403930664,
        9.344439506530762,
        5.980807304382324
      ],
      "min": [
        -11.679661750793457,
        -3.3518669605255127,
        -17.552059173583984
      ],
      "type": "VEC3"
    },
    {
      "bufferView": 1,
      "byteOffset": 10222992,
      "componentType": 5126,
      "count": 65532,
      "max": [
        0.9999997019767761,
        1.0,
        0.9999656677246094
      ],
      "min": [
        -0.9999997019767761,
        -0.9999958276748657,
        -1.0
      ],
      "type": "VEC3"
    },
    {
      "bufferView": 2,
      "byteOffset": 6291072,
      "componentType": 5126,
      "count": 65532,
      "max": [
        1.0,
        1.0,
        1.0,
        1.0
      ],
      "min": [
        0.003921568859368563,
        0.0,
        0.003921568859368563,
        1.0
      ],
      "type": "VEC4"
    },
    {
      "bufferView": 0,
      "byteOffset": 7340676,
      "componentType": 5125,
      "count": 305247,
      "type": "SCALAR"
    },
    {
      "bufferView": 1,
      "byteOffset": 11009376,
      "componentType": 5126,
      "count": 65532,
      "max": [
        11.678410530090332,
        9.344246864318848,
        5.9803571701049805
      ],
      "min": [
        -11.595808029174805,
        -1.8146748542785645,
        -17.552059173583984
      ],
      "type": "VEC3"
    },
    {
      "bufferView": 1,
      "byteOffset": 11795760,
      "componentType": 5126,
      "count": 65532,
      "max": [
        0.9999849200248718,
        0.9999995827674866,
        0.999980092048645
      ],
      "min": [
        -0.9999815225601196,
        -0.9999788999557495,
        -0.9999999403953552
      ],
      "type": "VEC3"
    },
    {
      "bufferView": 2,
      "byteOffset": 7339584,
      "componentType": 5126,
      "count": 65532,
      "max": [
        1.0,
        1.0,
        1.0,
        1.0
      ],
      "min": [
        0.0235294122248888,
        0.0235294122248888,
        0.0235294122248888,
        1.0
      ],
      "type": "VEC4"
    },
    {
      "bufferView": 0,
      "byteOffset": 8561664,
      "componentType": 5125,
      "count": 306750,
      "type": "SCALAR"
    },
    {
      "bufferView": 1,
      "byteOffset": 12582144,
      "componentType": 5126,
      "count": 65532,
      "max": [
        11.475711822509766,
        9.314478874206543,
        5.814254283905029
      ],
      "min": [
        -11.473228454589844,
        -3.3494973182678223,
        -17.55206298828125
      ],
      "type": "VEC3"
    },
    {
      "bufferView": 1,
      "byteOffset": 13368528,
      "componentType": 5126,
      "count": 65532,
      "max": [
        0.9999943971633911,
        0.9999940395355225,
        0.999997079372406
      ],
      "min": [
        -1.0,
        -1.0,
        -0.9999998211860657
      ],
      "type": "VEC3"
    },
    {
      "bufferView": 2,
      "byteOffset": 8388096,
      "componentType": 5126,
      "count": 65532,
      "max": [
        1.0,
        1.0,
        1.0,
        1.0
      ],
      "min": [
        0.0,
        0.0,
        0.0,
        1.0
      ],
      "type": "VEC4"
    },
    {
      "bufferView": 0,
      "byteOffset": 9788664,
      "componentType": 5125,
      "count": 300717,
      "type": "SCALAR"
    },
    {
      "bufferView": 1,
      "byteOffset": 14154912,
      "componentType": 5126,
      "count": 65534,
      "max": [
        11.485309600830078,
        9.38728141784668,
        6.041078567504883
      ],
      "min": [
        -11.384916305541992,
        -3.352080821990967,
        -17.55901336669922
      ],
      "type": "VEC3"
    },
    {
      "bufferView": 1,
      "byteOffset": 14941320,
      "componentType": 5126,
      "count": 65534,
      "max": [
        0.9999982118606567,
        0.9999891519546509,
        0.9999876618385315
      ],
      "min": [
        -0.9999993443489075,
        -0.9999983310699463,
        -1.0
      ],
      "type": "VEC3"
    },
    {
      "bufferView": 2,
      "byteOffset": 9436608,
      "componentType": 5126,
      "count": 65534,
      "max": [
        1.0,
        1.0,
        1.0,
        1.0
      ],
      "min": [
        0.0,
        0.0,
        0.0,
        1.0
      ],
      "type": "VEC4"
    },
    {
      "bufferView": 0,
      "byteOffset": 10991532,
      "componentType": 5125,
      "count": 291129,
      "type": "SCALAR"
    },
    {
      "bufferView": 1,
      "byteOffset": 15727728,
      "componentType": 5126,
      "count": 65532,
      "max": [
        11.678410530090332,
        9.38564395904541,
        5.988633632659912
      ],
      "min": [
        -11.589401245117188,
        -3.3495090007781982,
        -17.552059173583984
      ],
      "type": "VEC3"
    },
    {
      "bufferView": 1,
      "byteOffset": 16514112,
      "componentType": 5126,
      "count": 65532,
      "max": [
        0.999999463558197,
        0.9999964237213135,
        1.0
      ],
      "min": [
        -0.9999997615814209,
        -0.9999992251396179,
        -0.9999980330467224
      ],
      "type": "VEC3"
    },
    {
      "bufferView": 2,
      "byteOffset": 10485152,
      "componentType": 5126,
      "count": 65532,
      "max": [
        1.0,
        1.0,
        1.0,
        1.0
      ],
      "min": [
        0.0,
        0.0,
        0.0,
        1.0
      ],
      "type": "VEC4"
    },
    {
      "bufferView": 0,
      "byteOffset": 12156048,
      "componentType": 5125,
      "count": 264789,
      "type": "SCALAR"
    },
    {
      "bufferView": 1,
      "byteOffset": 17300496,
      "componentType": 5126,
      "count": 65532,
      "max": [
        11.31241512298584,
        9.385211944580078,
        6.013513565063477
      ],
      "min": [
        -11.604265213012695,
        -2.9431657791137695,
        -17.551469802856445
      ],
      "type": "VEC3"
    },
    {
      "bufferView": 1,
      "byteOffset": 18086880,
      "componentType": 5126,
      "count": 65532,
      "max": [
        0.9999707937240601,
        1.0,
        0.9999998807907104
      ],
      "min": [
        -0.9999996423721313,
        -0.9999958276748657,
        -0.9999999403953552
      ],
      "type": "VEC3"
    },
    {
      "bufferView": 2,
      "byteOffset": 11533664,
      "componentType": 5126,
      "count": 65532,
      "max": [
        1.0,
        1.0,
        1.0,
        1.0
      ],
      "min": [
        0.0,
        0.0,
        0.0,
        1.0
      ],
      "type": "VEC4"
    },
    {
      "bufferView": 0,
      "byteOffset": 13215204,
      "componentType": 5125,
      "count": 212895,
      "type": "SCALAR"
    },
    {
      "bufferView": 1,
      "byteOffset": 18873264,
      "componentType": 5126,
      "count": 65534,
      "max": [
        11.650920867919922,
        9.384379386901855,
        6.040474891662598
      ],
      "min": [
        -11.611847877502441,
        -3.3495090007781982,
        -17.557737350463867
      ],
      "type": "VEC3"
    },
    {
      "bufferView": 1,
      "byteOffset": 19659672,
      "componentType": 5126,
      "count": 65534,
      "max": [
        0.9999943971633911,
        0.999997079372406,
        0.9999700784683228
      ],
      "min": [
        -0.9999815225601196,
        -0.9999960660934448,
        -0.9999999403953552
      ],
      "type": "VEC3"
    },
    {
      "bufferView": 2,
      "byteOffset": 12582176,
      "componentType": 5126,
      "count": 65534,
      "max": [
        1.0,
        1.0,
        1.0,
        1.0
      ],
      "min": [
        0.0,
        0.0,
        0.0,
        1.0
      ],
      "type": "VEC4"
    },
    {
      "bufferView": 0,
      "byteOffset": 14066784,
      "componentType": 5125,
      "count": 138933,
      "type": "SCALAR"
    },
    {
      "bufferView": 1,
      "byteOffset": 20446080,
      "componentType": 5126,
      "count": 18761,
      "max": [
        11.607281684875488,
        9.387033462524414,
        5.965263843536377
      ],
      "min": [
        -11.653485298156738,
        -3.1048173904418945,
        -17.187904357910156
      ],
      "type": "VEC3"
    },
    {
      "bufferView": 1,
      "byteOffset": 20671212,
      "componentType": 5126,
      "count": 18761,
      "max": [
        0.9994774460792542,
        1.0,
        0.9998265504837036
      ],
      "min": [
        -0.999998927116394,
        -0.9997541308403015,
        -0.9999998807907104
      ],
      "type": "VEC3"
    },
    {
      "bufferView": 2,
      "byteOffset": 13630720,
      "componentType": 5126,
      "count": 18761,
      "max": [
        1.0,
        1.0,
        1.0,
        1.0
      ],
      "min": [
        0.0,
        0.0,
        0.0,
        1.0
      ],
      "type": "VEC4"
    },
    {
      "bufferView": 0,
      "byteOffset": 14622516,
      "componentType": 5125,
      "count": 23565,
      "type": "SCALAR"
    }
  ],
  "asset": {
    "extras": {
      "author": "Mandrake (https://sketchfab.com/mandrake_3d)",
      "license": "CC-BY-4.0 (http://creativecommons.org/licenses/by/4.0/)",
      "source": "https://sketchfab.com/3d-models/ryuk-a873713dd03a46a8926ade0281dbd059",
      "title": "Ryuk"
    },
    "generator": "Sketchfab-12.68.0",
    "version": "2.0"
  },
  "bufferViews": [
    {
      "buffer": 0,
      "byteLength": 14716776,
      "name": "floatBufferViews",
      "target": 34963
    },
    {
      "buffer": 0,
      "byteLength": 20896344,
      "byteOffset": 14716776,
      "byteStride": 12,
      "name": "floatBufferViews",
      "target": 34962
    },
    {
      "buffer": 0,
      "byteLength": 13930896,
      "byteOffset": 35613120,
      "byteStride": 16,
      "name": "floatBufferViews",
      "target": 34962
    }
  ],
  "buffers": [
    {
      "byteLength": 49544016,
      "uri": "scene.bin"
    }
  ],
  "materials": [
    {
      "doubleSided": true,
      "name": "material_0",
      "pbrMetallicRoughness": {
        "metallicFactor": 0.0,
        "roughnessFactor": 0.6705290966686731
      }
    }
  ],
  "meshes": [
    {
      "name": "Object_0",
      "primitives": [
        {
          "attributes": {
            "COLOR_0": 2,
            "NORMAL": 1,
            "POSITION": 0
          },
          "indices": 3,
          "material": 0,
          "mode": 4
        }
      ]
    },
    {
      "name": "Object_1",
      "primitives": [
        {
          "attributes": {
            "COLOR_0": 6,
            "NORMAL": 5,
            "POSITION": 4
          },
          "indices": 7,
          "material": 0,
          "mode": 4
        }
      ]
    },
    {
      "name": "Object_2",
      "primitives": [
        {
          "attributes": {
            "COLOR_0": 10,
            "NORMAL": 9,
            "POSITION": 8
          },
          "indices": 11,
          "material": 0,
          "mode": 4
        }
      ]
    },
    {
      "name": "Object_3",
      "primitives": [
        {
          "attributes": {
            "COLOR_0": 14,
            "NORMAL": 13,
            "POSITION": 12
          },
          "indices": 15,
          "material": 0,
          "mode": 4
        }
      ]
    },
    {
      "name": "Object_4",
      "primitives": [
        {
          "attributes": {
            "COLOR_0": 18,
            "NORMAL": 17,
            "POSITION": 16
          },
          "indices": 19,
          "material": 0,
          "mode": 4
        }
      ]
    },
    {
      "name": "Object_5",
      "primitives": [
        {
          "attributes": {
            "COLOR_0": 22,
            "NORMAL": 21,
            "POSITION": 20
          },
          "indices": 23,
          "material": 0,
          "mode": 4
        }
      ]
    },
    {
      "name": "Object_6",
      "primitives": [
        {
          "attributes": {
            "COLOR_0": 26,
            "NORMAL": 25,
            "POSITION": 24
          },
          "indices": 27,
          "material": 0,
          "mode": 4
        }
      ]
    },
    {
      "name": "Object_7",
      "primitives": [
        {
          "attributes": {
            "COLOR_0": 30,
            "NORMAL": 29,
            "POSITION": 28
          },
          "indices": 31,
          "material": 0,
          "mode": 4
        }
      ]
    },
    {
      "name": "Object_8",
      "primitives": [
        {
          "attributes": {
            "COLOR_0": 34,
            "NORMAL": 33,
            "POSITION": 32
          },
          "indices": 35,
          "material": 0,
          "mode": 4
        }
      ]
    },
    {
      "name": "Object_9",
      "primitives": [
        {
          "attributes": {
            "COLOR_0": 38,
            "NORMAL": 37,
            "POSITION": 36
          },
          "indices": 39,
          "material": 0,
          "mode": 4
        }
      ]
    },
    {
      "name": "Object_10",
      "primitives": [
        {
          "attributes": {
            "COLOR_0": 42,
            "NORMAL": 41,
            "POSITION": 40
          },
          "indices": 43,
          "material": 0,
          "mode": 4
        }
      ]
    },
    {
      "name": "Object_11",
      "primitives": [
        {
          "attributes": {
            "COLOR_0": 46,
            "NORMAL": 45,
            "POSITION": 44
          },
          "indices": 47,
          "material": 0,
          "mode": 4
        }
      ]
    },
    {
      "name": "Object_12",
      "primitives": [
        {
          "attributes": {
            "COLOR_0": 50,
            "NORMAL": 49,
            "POSITION": 48
          },
          "indices": 51,
          "material": 0,
          "mode": 4
        }
      ]
    },
    {
      "name": "Object_13",
      "primitives": [
        {
          "attributes": {
            "COLOR_0": 54,
            "NORMAL": 53,
            "POSITION": 52
          },
          "indices": 55,
          "material": 0,
          "mode": 4
        }
      ]
    }
  ],
  "nodes": [
    {
      "children": [
        1
      ],
      "matrix": [
        1.0,
        0.0,
        0.0,
        0.0,
        0.0,
        2.220446049250313e-16,
        -1.0,
        0.0,
        0.0,
        1.0,
        2.220446049250313e-16,
        0.0,
        0.0,
        0.0,
        0.0,
        1.0
      ],
      "name": "Sketchfab_model"
    },
    {
      "children": [
        2,
        3,
        4,
        5,
        6,
        7,
        8,
        9,
        10,
        11,
        12,
        13,
        14,
        15
      ],
      "name": "ryuk.obj.cleaner.materialmerger.gles"
    },
    {
      "mesh": 0,
      "name": "Object_2"
    },
    {
      "mesh": 1,
      "name": "Object_3"
    },
    {
      "mesh": 2,
      "name": "Object_4"
    },
    {
      "mesh": 3,
      "name": "Object_5"
    },
    {
      "mesh": 4,
      "name": "Object_6"
    },
    {
      "mesh": 5,
      "name": "Object_7"
    },
    {
      "mesh": 6,
      "name": "Object_8"
    },
    {
      "mesh": 7,
      "name": "Object_9"
    },
    {
      "mesh": 8,
      "name": "Object_10"
    },
    {
      "mesh": 9,
      "name": "Object_11"
    },
    {
      "mesh": 10,
      "name": "Object_12"
    },
    {
      "mesh": 11,
      "name": "Object_13"
    },
    {
      "mesh": 12,
      "name": "Object_14"
    },
    {
      "mesh": 13,
      "name": "Object_15"
    }
  ],
  "scene": 0,
  "scenes": [
    {
      "name": "Sketchfab_Scene",
      "nodes": [
        0
      ]
    }
  ]
}
