{
  "accessors": [
    {
      "bufferView": 2,
      "componentType": 5126,
      "count": 4,
      "max": [
        5.197693824768066,
        1.2838339805603027,
        3.8008289337158203
      ],
      "min": [
        -5.197693824768066,
        1.2838339805603027,
        -2.051553964614868
      ],
      "type": "VEC3"
    },
    {
      "bufferView": 2,
      "byteOffset": 48,
      "componentType": 5126,
      "count": 4,
      "max": [
        0.0,
        -1.0,
        0.0
      ],
      "min": [
        0.0,
        -1.0,
        0.0
      ],
      "type": "VEC3"
    },
    {
      "bufferView": 1,
      "componentType": 5126,
      "count": 4,
      "max": [
        0.9998999834060669,
        0.9997509717941284
      ],
      "min": [
        9.999999747378752e-05,
        9.999999747378752e-05
      ],
      "type": "VEC2"
    },
    {
      "bufferView": 0,
      "componentType": 5125,
      "count": 6,
      "type": "SCALAR"
    },
    {
      "bufferView": 2,
      "byteOffset": 96,
      "componentType": 5126,
      "count": 8,
      "max": [
        8.248175621032715,
        1.2838339805603027,
        5.518187046051025
      ],
      "min": [
        -8.248175621032715,
        1.2838339805603027,
        -3.768908977508545
      ],
      "type": "VEC3"
    },
    {
      "bufferView": 2,
      "byteOffset": 192,
      "componentType": 5126,
      "count": 8,
      "max": [
        0.0,
        -1.0,
        0.0
      ],
      "min": [
        0.0,
        -1.0,
        0.0
      ],
      "type": "VEC3"
    },
    {
      "bufferView": 1,
      "byteOffset": 32,
      "componentType": 5126,
      "count": 8,
      "max": [
        0.9991559982299805,
        1.0
      ],
      "min": [
        0.0,
        0.0
      ],
      "type": "VEC2"
    },
    {
      "bufferView": 0,
      "byteOffset": 24,
      "componentType": 5125,
      "count": 24,
      "type": "SCALAR"
    },
    {
      "bufferView": 2,
      "byteOffset": 288,
      "componentType": 5126,
      "count": 6294,
      "max": [
        1.486515998840332,
        0.4802969992160797,
        2.8617289066314697
      ],
      "min": [
        -0.8437759876251221,
        -0.9185619950294495,
        0.2138350009918213
      ],
      "type": "VEC3"
    },
    {
      "bufferView": 2,
      "byteOffset": 75816,
      "componentType": 5126,
      "count": 6294,
      "max": [
        0.9981920123100281,
        0.9999696016311646,
        0.9979161620140076
      ],
      "min": [
        -0.9981585144996643,
        -0.999983549118042,
        -0.9994256496429443
      ],
      "type": "VEC3"
    },
    {
      "bufferView": 1,
      "byteOffset": 96,
      "componentType": 5126,
      "count": 6294,
      "max": [
        0.9904929995536804,
        0.9816799759864807
      ],
      "min": [
        0.020894000306725502,
        0.011594000272452831
      ],
      "type": "VEC2"
    },
    {
      "bufferView": 0,
      "byteOffset": 120,
      "componentType": 5125,
      "count": 16836,
      "type": "SCALAR"
    },
    {
      "bufferView": 2,
      "byteOffset": 151344,
      "componentType": 5126,
      "count": 10636,
      "max": [
        1.560884952545166,
        0.6058189868927002,
        -0.29870301485061646
      ],
      "min": [
        -0.6288819909095764,
        -0.7044370174407959,
        -3.3047358989715576
      ],
      "type": "VEC3"
    },
    {
      "bufferView": 2,
      "byteOffset": 278976,
      "componentType": 5126,
      "count": 10636,
      "max": [
        0.999866783618927,
        0.9999220371246338,
        0.9997768998146057
      ],
      "min": [
        -0.9996175169944763,
        -0.9999630451202393,
        -0.9999294281005859
      ],
      "type": "VEC3"
    },
    {
      "bufferView": 1,
      "byteOffset": 50448,
      "componentType": 5126,
      "count": 10636,
      "max": [
        0.9922639727592468,
        0.9300130009651184
      ],
      "min": [
        0.3822900056838989,
        0.4859429895877838
      ],
      "type": "VEC2"
    },
    {
      "bufferView": 0,
      "byteOffset": 67464,
      "componentType": 5125,
      "count": 55680,
      "type": "SCALAR"
    },
    {
      "bufferView": 2,
      "byteOffset": 406608,
      "componentType": 5126,
      "count": 2612,
      "max": [
        1.070963978767395,
        0.3508560061454773,
        2.5029919147491455
      ],
      "min": [
        -0.774025022983551,
        -0.914205014705658,
        0.17730000615119934
      ],
      "type": "VEC3"
    },
    {
      "bufferView": 2,
      "byteOffset": 437952,
      "componentType": 5126,
      "count": 2612,
      "max": [
        0.9998361468315125,
        0.9977110624313354,
        0.9954824447631836
      ],
      "min": [
        -0.9996675848960876,
        -0.9998409152030945,
        -0.999275803565979
      ],
      "type": "VEC3"
    },
    {
      "bufferView": 1,
      "byteOffset": 135536,
      "componentType": 5126,
      "count": 2612,
      "max": [
        0.8729519844055176,
        0.9295250177383423
      ],
      "min": [
        0.011785999871790409,
        0.010587000288069248
      ],
      "type": "VEC2"
    },
    {
      "bufferView": 0,
      "byteOffset": 290184,
      "componentType": 5125,
      "count": 13452,
      "type": "SCALAR"
    },
    {
      "bufferView": 2,
      "byteOffset": 469296,
      "componentType": 5126,
      "count": 9295,
      "max": [
        1.7787950038909912,
        0.42753198742866516,
        1.4289209842681885
      ],
      "min": [
        -0.461668998003006,
        -1.180757999420166,
        -0.8968279957771301
      ],
      "type": "VEC3"
    },
    {
      "bufferView": 2,
      "byteOffset": 580836,
      "componentType": 5126,
      "count": 9295,
      "max": [
        0.9999605417251587,
        0.9998946189880371,
        0.9999788999557495
      ],
      "min": [
        -0.9998288750648499,
        -0.9987967610359192,
        -0.999875009059906
      ],
      "type": "VEC3"
    },
    {
      "bufferView": 1,
      "byteOffset": 156432,
      "componentType": 5126,
      "count": 9295,
      "max": [
        0.9791439771652222,
        0.9894049763679504
      ],
      "min": [
        0.4288310110569,
        0.5194299817085266
      ],
      "type": "VEC2"
    },
    {
      "bufferView": 0,
      "byteOffset": 343992,
      "componentType": 5125,
      "count": 46572,
      "type": "SCALAR"
    },
    {
      "bufferView": 2,
      "byteOffset": 692376,
      "componentType": 5126,
      "count": 2047,
      "max": [
        1.7690290212631226,
        0.4963339865207672,
        1.0980310440063477
      ],
      "min": [
        -0.0054870001040399075,
        -1.0512930154800415,
        -1.751013994216919
      ],
      "type": "VEC3"
    },
    {
      "bufferView": 2,
      "byteOffset": 716940,
      "componentType": 5126,
      "count": 2047,
      "max": [
        0.9994035959243774,
        0.9975639581680298,
        0.999733030796051
      ],
      "min": [
        -0.9994442462921143,
        -0.9955880045890808,
        -0.998949408531189
      ],
      "type": "VEC3"
    },
    {
      "bufferView": 1,
      "byteOffset": 230792,
      "componentType": 5126,
      "count": 2047,
      "max": [
        0.9845259785652161,
        0.980334997177124
      ],
      "min": [
        0.04427399858832359,
        0.6624799966812134
      ],
      "type": "VEC2"
    },
    {
      "bufferView": 0,
      "byteOffset": 530280,
      "componentType": 5125,
      "count": 9612,
      "type": "SCALAR"
    },
    {
      "bufferView": 2,
      "byteOffset": 741504,
      "componentType": 5126,
      "count": 1040,
      "max": [
        2.45686411857605,
        1.5751550197601318,
        0.6415669918060303
      ],
      "min": [
        -2.513211965560913,
        -1.7582019567489624,
        -3.7630040645599365
      ],
      "type": "VEC3"
    },
    {
      "bufferView": 2,
      "byteOffset": 753984,
      "componentType": 5126,
      "count": 1040,
      "max": [
        0.999971866607666,
        0.9999998807907104,
        0.9947817325592041
      ],
      "min": [
        -0.9991852045059204,
        -0.9997912049293518,
        -0.9953282475471497
      ],
      "type": "VEC3"
    },
    {
      "bufferView": 1,
      "byteOffset": 247168,
      "componentType": 5126,
      "count": 1040,
      "max": [
        0.9945819973945618,
        0.9934700131416321
      ],
      "min": [
        0.005444000009447336,
        0.00017800000205170363
      ],
      "type": "VEC2"
    },
    {
      "bufferView": 0,
      "byteOffset": 568728,
      "componentType": 5125,
      "count": 3426,
      "type": "SCALAR"
    },
    {
      "bufferView": 2,
      "byteOffset": 766464,
      "componentType": 5126,
      "count": 2033,
      "max": [
        1.488724946975708,
        1.0859359502792358,
        2.8663010597229004
      ],
      "min": [
        -1.6646779775619507,
        -1.2086529731750488,
        -0.5416979789733887
      ],
      "type": "VEC3"
    },
    {
      "bufferView": 2,
      "byteOffset": 790860,
      "componentType": 5126,
      "count": 2033,
      "max": [
        0.9961356520652771,
        0.9999855756759644,
        0.9975979924201965
      ],
      "min": [
        -0.9953070878982544,
        -0.999967098236084,
        -0.9979548454284668
      ],
      "type": "VEC3"
    },
    {
      "bufferView": 1,
      "byteOffset": 255488,
      "componentType": 5126,
      "count": 2033,
      "max": [
        0.8342289924621582,
        0.9816799759864807
      ],
      "min": [
        0.005576000083237886,
        0.0023640000727027655
      ],
      "type": "VEC2"
    },
    {
      "bufferView": 0,
      "byteOffset": 582432,
      "componentType": 5125,
      "count": 9285,
      "type": "SCALAR"
    },
    {
      "bufferView": 2,
      "byteOffset": 815256,
      "componentType": 5126,
      "count": 10636,
      "max": [
        1.5645689964294434,
        0.6099449992179871,
        -0.29440900683403015
      ],
      "min": [
        -0.6333270072937012,
        -0.7091270089149475,
        -3.3079609870910645
      ],
      "type": "VEC3"
    },
    {
      "bufferView": 2,
      "byteOffset": 942888,
      "componentType": 5126,
      "count": 10636,
      "max": [
        0.9998816251754761,
        0.9999698400497437,
        0.9999395608901978
      ],
      "min": [
        -0.9997732043266296,
        -0.9999369382858276,
        -0.9995960593223572
      ],
      "type": "VEC3"
    },
    {
      "bufferView": 1,
      "byteOffset": 271752,
      "componentType": 5126,
      "count": 10636,
      "max": [
        0.9922639727592468,
        0.9300130009651184
      ],
      "min": [
        0.3822900056838989,
        0.4859429895877838
      ],
      "type": "VEC2"
    },
    {
      "bufferView": 0,
      "byteOffset": 619572,
      "componentType": 5125,
      "count": 55680,
      "type": "SCALAR"
    },
    {
      "bufferView": 2,
      "byteOffset": 1070520,
      "componentType": 5126,
      "count": 9956,
      "max": [
        1.7835479974746704,
        0.42590799927711487,
        2.507599115371704
      ],
      "min": [
        -0.7786849737167358,
        -1.1839909553527832,
        -0.8962969779968262
      ],
      "type": "VEC3"
    },
    {
      "bufferView": 2,
      "byteOffset": 1189992,
      "componentType": 5126,
      "count": 9956,
      "max": [
        0.999674379825592,
        0.9998891353607178,
        0.9995191693305969
      ],
      "min": [
        -0.9998645186424255,
        -0.9999083280563354,
        -0.9999624490737915
      ],
      "type": "VEC3"
    },
    {
      "bufferView": 1,
      "byteOffset": 356840,
      "componentType": 5126,
      "count": 9956,
      "max": [
        0.9318249821662903,
        0.9893059730529785
      ],
      "min": [
        0.011785999871790409,
        0.010587000288069248
      ],
      "type": "VEC2"
    },
    {
      "bufferView": 0,
      "byteOffset": 842292,
      "componentType": 5125,
      "count": 51456,
      "type": "SCALAR"
    },
    {
      "bufferView": 2,
      "byteOffset": 1309464,
      "componentType": 5126,
      "count": 2289,
      "max": [
        1.773000955581665,
        0.7732489705085754,
        1.3733570575714111
      ],
      "min": [
        -1.3133529424667358,
        -1.0559289455413818,
        -1.7539490461349487
      ],
      "type": "VEC3"
    },
    {
      "bufferView": 2,
      "byteOffset": 1336932,
      "componentType": 5126,
      "count": 2289,
      "max": [
        0.998795211315155,
        0.9954924583435059,
        0.999437689781189
      ],
      "min": [
        -0.998883068561554,
        -0.9954047799110413,
        -0.9995070099830627
      ],
      "type": "VEC3"
    },
    {
      "bufferView": 1,
      "byteOffset": 436488,
      "componentType": 5126,
      "count": 2289,
      "max": [
        0.9845259785652161,
        0.9894049763679504
      ],
      "min": [
        0.4288310110569,
        0.2342350035905838
      ],
      "type": "VEC2"
    },
    {
      "bufferView": 0,
      "byteOffset": 1048116,
      "componentType": 5125,
      "count": 10224,
      "type": "SCALAR"
    }
  ],
  "asset": {
    "extras": {
      "author": "Renks (https://sketchfab.com/renks)",
      "license": "CC-BY-NC-SA-4.0 (http://creativecommons.org/licenses/by-nc-sa/4.0/)",
      "source": "https://sketchfab.com/3d-models/takagi-san-karakai-jouzu-no-takagi-san-5321dd4b7fa04079ad91af58a63ada3f",
      "title": "Takagi-san – Karakai Jouzu no Takagi-san"
    },
    "generator": "Sketchfab-12.67.0",
    "version": "2.0"
  },
  "bufferViews": [
    {
      "buffer": 0,
      "byteLength": 1089012,
      "name": "floatBufferViews",
      "target": 34963
    },
    {
      "buffer": 0,
      "byteLength": 454800,
      "byteOffset": 1089012,
      "byteStride": 8,
      "name": "floatBufferViews",
      "target": 34962
    },
    {
      "buffer": 0,
      "byteLength": 1364400,
      "byteOffset": 1543812,
      "byteStride": 12,
      "name": "floatBufferViews",
      "target": 34962
    }
  ],
  "buffers": [
    {
      "byteLength": 2908212,
      "uri": "scene.bin"
    }
  ],
  "extensionsUsed": [
    "KHR_materials_unlit"
  ],
  "images": [
    {
      "uri": "textures/Material_baseColor.png"
    },
    {
      "uri": "textures/Material_MISC_baseColor.png"
    },
    {
      "uri": "textures/Material_bg_baseColor.png"
    },
    {
      "uri": "textures/Material_bg_border_baseColor.png"
    }
  ],
  "materials": [
    {
      "doubleSided": true,
      "extensions": {
        "KHR_materials_unlit": {}
      },
      "name": "Material",
      "pbrMetallicRoughness": {
        "baseColorTexture": {
          "index": 0
        },
        "metallicFactor": 0.0
      }
    },
    {
      "doubleSided": true,
      "extensions": {
        "KHR_materials_unlit": {}
      },
      "name": "Material_MISC",
      "pbrMetallicRoughness": {
        "baseColorTexture": {
          "index": 1
        },
        "metallicFactor": 0.0
      }
    },
    {
      "extensions": {
        "KHR_materials_unlit": {}
      },
      "name": "Material_bg",
      "pbrMetallicRoughness": {
        "baseColorTexture": {
          "index": 2
        },
        "metallicFactor": 0.0
      }
    },
    {
      "extensions": {
        "KHR_materials_unlit": {}
      },
      "name": "Material_bg_border",
      "pbrMetallicRoughness": {
        "baseColorTexture": {
          "index": 3
        },
        "metallicFactor": 0.0
      }
    },
    {
      "extensions": {
        "KHR_materials_unlit": {}
      },
      "name": "Outline",
      "pbrMetallicRoughness": {
        "baseColorFactor": [
          0.0612460542,
          0.0423114106,
          0.0273208916,
          1.0
        ],
        "metallicFactor": 0.0
      }
    }
  ],
  "meshes": [
    {
      "name": "Object_0",
      "primitives": [
        {
          "attributes": {
            "NORMAL": 1,
            "POSITION": 0,
            "TEXCOORD_0": 2
          },
          "indices": 3,
          "material": 2,
          "mode": 4
        }
      ]
    },
    {
      "name": "Object_1",
      "primitives": [
        {
          "attributes": {
            "NORMAL": 5,
            "POSITION": 4,
            "TEXCOORD_0": 6
          },
          "indices": 7,
          "material": 3,
          "mode": 4
        }
      ]
    },
    {
      "name": "Object_2",
      "primitives": [
        {
          "attributes": {
            "NORMAL": 9,
            "POSITION": 8,
            "TEXCOORD_0": 10
          },
          "indices": 11,
          "material": 0,
          "mode": 4
        }
      ]
    },
    {
      "name": "Object_3",
      "primitives": [
        {
          "attributes": {
            "NORMAL": 13,
            "POSITION": 12,
            "TEXCOORD_0": 14
          },
          "indices": 15,
          "material": 0,
          "mode": 4
        }
      ]
    },
    {
      "name": "Object_4",
      "primitives": [
        {
          "attributes": {
            "NORMAL": 17,
            "POSITION": 16,
            "TEXCOORD_0": 18
          },
          "indices": 19,
          "material": 0,
          "mode": 4
        }
      ]
    },
    {
      "name": "Object_5",
      "primitives": [
        {
          "attributes": {
            "NORMAL": 21,
            "POSITION": 20,
            "TEXCOORD_0": 22
          },
          "indices": 23,
          "material": 0,
          "mode": 4
        }
      ]
    },
    {
      "name": "Object_6",
      "primitives": [
        {
          "attributes": {
            "NORMAL": 25,
            "POSITION": 24,
            "TEXCOORD_0": 26
          },
          "indices": 27,
          "material": 0,
          "mode": 4
        }
      ]
    },
    {
      "name": "Object_7",
      "primitives": [
        {
          "attributes": {
            "NORMAL": 29,
            "POSITION": 28,
            "TEXCOORD_0": 30
          },
          "indices": 31,
          "material": 1,
          "mode": 4
        }
      ]
    },
    {
      "name": "Object_8",
      "primitives": [
        {
          "attributes": {
            "NORMAL": 33,
            "POSITION": 32,
            "TEXCOORD_0": 34
          },
          "indices": 35,
          "material": 4,
          "mode": 4
        }
      ]
    },
    {
      "name": "Object_9",
      "primitives": [
        {
          "attributes": {
            "NORMAL": 37,
            "POSITION": 36,
            "TEXCOORD_0": 38
          },
          "indices": 39,
          "material": 4,
          "mode": 4
        }
      ]
    },
    {
      "name": "Object_10",
      "primitives": [
        {
          "attributes": {
            "NORMAL": 41,
            "POSITION": 40,
            "TEXCOORD_0": 42
          },
          "indices": 43,
          "material": 4,
          "mode": 4
        }
      ]
    },
    {
      "name": "Object_11",
      "primitives": [
        {
          "attributes": {
            "NORMAL": 45,
            "POSITION": 44,
            "TEXCOORD_0": 46
          },
          "indices": 47,
          "material": 4,
          "mode": 4
        }
      ]
    }
  ],
  "nodes": [
    {
      "children": [
        1
      ],
      "matrix": [
        1.0,
        0.0,
        0.0,
        0.0,
        0.0,
        2.220446049250313e-16,
        -1.0,
        0.0,
        0.0,
        1.0,
        2.220446049250313e-16,
        0.0,
        0.0,
        0.0,
        0.0,
        1.0
      ],
      "name": "Sketchfab_model"
    },
    {
      "children": [
        2,
        3,
        4,
        5,
        6,
        7,
        8,
        9,
        10,
        11,
        12,
        13
      ],
      "name": "Takagi_san_for_sketchfab_NON_Tring.obj.cleaner.materialmerger.gles"
    },
    {
      "mesh": 0,
      "name": "Object_2"
    },
    {
      "mesh": 1,
      "name": "Object_3"
    },
    {
      "mesh": 2,
      "name": "Object_4"
    },
    {
      "mesh": 3,
      "name": "Object_5"
    },
    {
      "mesh": 4,
      "name": "Object_6"
    },
    {
      "mesh": 5,
      "name": "Object_7"
    },
    {
      "mesh": 6,
      "name": "Object_8"
    },
    {
      "mesh": 7,
      "name": "Object_9"
    },
    {
      "mesh": 8,
      "name": "Object_10"
    },
    {
      "mesh": 9,
      "name": "Object_11"
    },
    {
      "mesh": 10,
      "name": "Object_12"
    },
    {
      "mesh": 11,
      "name": "Object_13"
    }
  ],
  "samplers": [
    {
      "magFilter": 9729,
      "minFilter": 9987,
      "wrapS": 10497,
      "wrapT": 10497
    }
  ],
  "scene": 0,
  "scenes": [
    {
      "name": "Sketchfab_Scene",
      "nodes": [
        0
      ]
    }
  ],
  "textures": [
    {
      "sampler": 0,
      "source": 0
    },
    {
      "sampler": 0,
      "source": 1
    },
    {
      "sampler": 0,
      "source": 2
    },
    {
      "sampler": 0,
      "source": 3
    }
  ]
}
