{
  "accessors": [
    {
      "bufferView": 2,
      "componentType": 5126,
      "count": 2719,
      "max": [
        6.859837055206299,
        3.1104910373687744,
        29.650352478027344
      ],
      "min": [
        -6.8595499992370605,
        -2.6959569454193115,
        -0.13734999299049377
      ],
      "type": "VEC3"
    },
    {
      "bufferView": 2,
      "byteOffset": 32628,
      "componentType": 5126,
      "count": 2719,
      "max": [
        1.0,
        1.0,
        1.0
      ],
      "min": [
        -1.0,
        -1.0,
        -1.0
      ],
      "type": "VEC3"
    },
    {
      "bufferView": 1,
      "componentType": 5126,
      "count": 2719,
      "max": [
        0.995402991771698,
        0.9944180250167847
      ],
      "min": [
        0.009463000111281872,
        0.005297000054270029
      ],
      "type": "VEC2"
    },
    {
      "bufferView": 0,
      "componentType": 5125,
      "count": 10164,
      "type": "SCALAR"
    },
    {
      "bufferView": 2,
      "byteOffset": 65256,
      "componentType": 5126,
      "count": 2721,
      "max": [
        6.756602764129639,
        3.0118420124053955,
        29.526376724243164
      ],
      "min": [
        -6.7563300132751465,
        -2.6026840209960938,
        -0.019915999844670296
      ],
      "type": "VEC3"
    },
    {
      "bufferView": 2,
      "byteOffset": 97908,
      "componentType": 5126,
      "count": 2721,
      "max": [
        1.0,
        1.0,
        1.0
      ],
      "min": [
        -1.0,
        -1.0,
        -1.0
      ],
      "type": "VEC3"
    },
    {
      "bufferView": 1,
      "byteOffset": 21752,
      "componentType": 5126,
      "count": 2721,
      "max": [
        0.995402991771698,
        0.9944180250167847
      ],
      "min": [
        0.009463000111281872,
        0.005297000054270029
      ],
      "type": "VEC2"
    },
    {
      "bufferView": 0,
      "byteOffset": 40656,
      "componentType": 5125,
      "count": 10356,
      "type": "SCALAR"
    }
  ],
  "asset": {
    "extras": {
      "author": "MMKH (https://sketchfab.com/mmkh)",
      "license": "CC-BY-4.0 (http://creativecommons.org/licenses/by/4.0/)",
      "source": "https://sketchfab.com/3d-models/saitama-ok-memechallenge-7b4d134a13cb473b943681a9c6ea1f83",
      "title": "Saitama - OK - #MemeChallenge"
    },
    "generator": "Sketchfab-12.68.0",
    "version": "2.0"
  },
  "bufferViews": [
    {
      "buffer": 0,
      "byteLength": 82080,
      "name": "floatBufferViews",
      "target": 34963
    },
    {
      "buffer": 0,
      "byteLength": 43520,
      "byteOffset": 82080,
      "byteStride": 8,
      "name": "floatBufferViews",
      "target": 34962
    },
    {
      "buffer": 0,
      "byteLength": 130560,
      "byteOffset": 125600,
      "byteStride": 12,
      "name": "floatBufferViews",
      "target": 34962
    }
  ],
  "buffers": [
    {
      "byteLength": 256160,
      "uri": "scene.bin"
    }
  ],
  "extensionsUsed": [
    "KHR_materials_unlit"
  ],
  "images": [
    {
      "uri": "textures/phong5SG_baseColor.png"
    }
  ],
  "materials": [
    {
      "doubleSided": true,
      "extensions": {
        "KHR_materials_unlit": {}
      },
      "name": "phong5SG",
      "pbrMetallicRoughness": {
        "baseColorTexture": {
          "index": 0
        },
        "metallicFactor": 0.0
      }
    },
    {
      "extensions": {
        "KHR_materials_unlit": {}
      },
      "name": "phong6SG",
      "pbrMetallicRoughness": {
        "baseColorFactor": [
          0.0,
          0.0,
          0.0,
          1.0
        ],
        "metallicFactor": 0.0
      }
    }
  ],
  "meshes": [
    {
      "name": "Object_0",
      "primitives": [
        {
          "attributes": {
            "NORMAL": 1,
            "POSITION": 0,
            "TEXCOORD_0": 2
          },
          "indices": 3,
          "material": 1,
          "mode": 4
        }
      ]
    },
    {
      "name": "Object_1",
      "primitives": [
        {
          "attributes": {
            "NORMAL": 5,
            "POSITION": 4,
            "TEXCOORD_0": 6
          },
          "indices": 7,
          "material": 0,
          "mode": 4
        }
      ]
    }
  ],
  "nodes": [
    {
      "children": [
        1
      ],
      "matrix": [
        1.0,
        0.0,
        0.0,
        0.0,
        0.0,
        2.220446049250313e-16,
        -1.0,
        0.0,
        0.0,
        1.0,
        2.220446049250313e-16,
        0.0,
        0.0,
        0.0,
        0.0,
        1.0
      ],
      "name": "Sketchfab_model"
    },
    {
      "children": [
        2,
        3
      ],
      "name": "Saitama_OK_Cel_shaded.obj.cleaner.materialmerger.gles"
    },
    {
      "mesh": 0,
      "name": "Object_2"
    },
    {
      "mesh": 1,
      "name": "Object_3"
    }
  ],
  "samplers": [
    {
      "magFilter": 9729,
      "minFilter": 9987,
      "wrapS": 10497,
      "wrapT": 10497
    }
  ],
  "scene": 0,
  "scenes": [
    {
      "name": "Sketchfab_Scene",
      "nodes": [
        0
      ]
    }
  ],
  "textures": [
    {
      "sampler": 0,
      "source": 0
    }
  ]
}
